<svg width="40" height="40" viewBox="0 0 40 40" xmlns="http://www.w3.org/2000/svg">
  <rect width="40" height="40" rx="4" fill="#E0E0E0"/>
  <path d="M20 12C15.5817 12 12 15.5817 12 20C12 24.4183 15.5817 28 20 28C24.4183 28 28 24.4183 28 20C28 15.5817 24.4183 12 20 12ZM20 26C16.6863 26 14 23.3137 14 20C14 16.6863 16.6863 14 20 14C23.3137 14 26 16.6863 26 20C26 23.3137 23.3137 26 20 26Z" fill="#9E9E9E"/>
  <path d="M20 16C18.3431 16 17 17.3431 17 19V21C17 22.6569 18.3431 24 20 24C21.6569 24 23 22.6569 23 21V19C23 17.3431 21.6569 16 20 16ZM21 21C21 21.5523 20.5523 22 20 22C19.4477 22 19 21.5523 19 21V19C19 18.4477 19.4477 18 20 18C20.5523 18 21 18.4477 21 19V21Z" fill="#9E9E9E"/>
</svg>